<svg width="100" height="100" viewBox="0 0 100 100" xmlns="http://www.w3.org/2000/svg"><title>testimonials-absolut-colored</title><g fill="none"><path d="M39.59 30.877c.883-.64 2.4-1.063 4.32-.705.598.116 1.156.32 1.402.423.247.103.441.09.558-.013v3.985s-1.038-1.013-2.634-1.025c-1.505.128-1.09 1.285-.285 1.922 1.387 1.097 3.113 2.14 3.62 3.805.506 1.666-.026 4.472-1.726 5.612-1.7 1.14-4.385 1.14-5.825.346-.597-.32-.87-.423-1.025-.32v-4.293s1.777 1.538 3.282 1.487c1.453-.141 1.427-1.153.986-1.59-.376-.46-.794-.861-2.244-1.96-1.239-1.224-2.141-2.126-2.037-4.24.104-2.114.726-2.793 1.609-3.434zM52.403 30c.193.003.305.018.305.018s5.675-.574 5.675 7.828c0 7.427-4.435 7.908-5.464 7.92h-.09c-.078-.001-.12-.005-.12-.005s-5.664.694-5.664-7.915c0-7.155 3.91-7.824 5.233-7.845zm18.894.339s-.143.115-.143.538v10.365s.114 1.09 1.217 1.09 1.083-1.09 1.083-1.09v-10.3s-.026-.424-.169-.578h4.334s-.13.193-.13.487v10.37c-.005.166-.171 4.544-5.2 4.544-4.927 0-5.216-4.182-5.23-4.503l-.001-10.385s-.052-.474-.17-.538zm-39.289.012c.194-.006 4.654-.11 4.781 3.55.09 3.42-2.608 3.715-2.608 3.715s3.062.154 3.153 3.677c.09 3.524-3.295 4.139-4.749 4.139h-5.67s.143-.282.143-.564V30.915s-.038-.435-.155-.563zm-8.465-.025s-.117.128-.052.474c.064.346 3.062 14.158 3.062 14.158s.116.384.285.448h-4.463s.13-.076.09-.435c-.038-.36-.272-1.986-.272-1.986H19.91l-.299 1.998s-.026.32.091.423h-4.606s.234-.09.338-.525l1.432-6.171.16-.692 1.677-7.23s.117-.334-.052-.462zm63.793.026v3.651s-.169-.128-.493-.128H84.87v10.97c.002.078.016.436.143.561h-4.541l.016-.02c.035-.051.114-.202.114-.53v-10.98h-1.979c-.099.001-.34.018-.512.127v-3.651h9.224zm-23.652-.013s-.116.154-.116.525v11.019h2.53s.415-.026.544-.154v3.664h-7.486s.143-.077.143-.615V30.903s.052-.295-.143-.564zm-11.03 2.99h-.039c-.306.019-1.263.405-1.263 4.517 0 4.894 1.356 4.38 1.356 4.38s1.29.512 1.29-4.38c0-4.11-.91-4.498-1.201-4.517h-.037c-.033 0-.052.006-.052.006s-.02-.005-.054-.006zm-19.692 7.285c0-1.845-1.726-1.563-1.726-1.563v3.1s1.726.308 1.726-1.537zm-11.885-5.253l-.74 4.869h1.454l-.714-4.869zm11.742-.576c-.078-1.64-1.57-1.384-1.57-1.384s.022 1.165.025 2.503l.001.405.045.002h.085c.389-.006 1.48-.13 1.414-1.526zm56.723-4.714c.805 0 1.493.618 1.493 1.455 0 .846-.688 1.463-1.493 1.463-.813 0-1.501-.617-1.501-1.463 0-.837.688-1.455 1.5-1.455zm0 .243c-.677 0-1.204.521-1.204 1.212 0 .703.527 1.22 1.204 1.22.668 0 1.196-.517 1.196-1.22 0-.69-.528-1.212-1.196-1.212zm.078.375c.402 0 .602.146.602.478 0 .301-.192.432-.442.463l.485.742h-.29l-.449-.73h-.297v.73h-.258v-1.683zm-.04.216h-.351v.52h.309c.219 0 .414-.015.414-.273 0-.209-.192-.247-.371-.247zM39.284 53.49c.193.003.305.018.305.018s5.675-.574 5.675 7.827c0 7.428-4.435 7.909-5.464 7.92h-.09c-.078 0-.121-.004-.121-.004s-5.663.694-5.663-7.916c0-7.154 3.91-7.823 5.232-7.845zm11.424.332c.734.006 4.383.223 5.49 3.974 1.148 3.892.054 7.038-.1 7.45l-.016.04-.003.01-.016.046c-.16.44-1.442 3.6-5.328 3.6h-4.658s.117-.269.117-.538V54.272s-.013-.256-.155-.448H50.6l.026-.001zm18.1.015s-.22.23-.363.512c-.143.282-3.023 6.47-3.023 6.47l2.958 7.726s.124.304.246.385h-4.774s.182-.231.078-.539l-.034-.102a873 873 0 0 1-.858-2.663l-.166-.515-.98-3.049.002 6.294c.003.083.028.461.155.587h-4.567s.155-.167.155-.564V54.285s-.052-.371-.168-.435h4.54s-.142.115-.142.448v5.727l2.18-5.791s.026-.32-.052-.397zm-41.466-.02c-.117.103-.091.423-.091.423l.298 1.999 1.168 7.623 1.116-7.623s.233-1.627.272-1.986c.039-.359-.09-.436-.09-.436h4.462c-.168.064-.285.449-.285.449s-2.997 13.811-3.062 14.157c-.065.346.052.474.052.474H26.29c.168-.128.051-.46.051-.46l-1.676-7.231-.16-.692c-.72-3.102-1.386-5.975-1.433-6.171-.104-.436-.337-.526-.337-.526zm49.826-.001s-.117.128-.052.474 3.062 14.157 3.062 14.157.117.385.285.449H76s.13-.077.091-.436c-.039-.359-.272-1.986-.272-1.986h-2.284l-.298 1.999s-.026.32.09.423h-4.605s.233-.09.337-.526c.047-.196.714-3.07 1.433-6.17l.16-.693 1.676-7.23s.117-.333-.051-.461zm-26.84 3.028h-.046l-.04.004v8.968s2.089.244 2.089-4.51c0-4.17-1.609-4.455-2.003-4.462zm-10.793-.026h-.039c-.306.02-1.263.406-1.263 4.517 0 4.895 1.356 4.38 1.356 4.38s1.29.512 1.29-4.38c0-4.109-.91-4.497-1.201-4.516h-.038c-.032 0-.051.006-.051.006s-.02-.006-.054-.007zm35.168 2.033l-.74 4.869h1.454l-.714-4.87z" fill="#005AA1"/><path d="M46.194 49.785a172.892 172.892 0 0 1-2.776 2.063l2.361-4.267h-.96c-1.012 1.858-1.453 2.511-1.751 2.908-.299.398-.494.795-1.09 1.115-.597.32-.558-.077-.558-.18 0-.102.22-.5.636-1.076.415-.576.648-.832.934-1.588.285-.756-.013-1.205-.247-1.256-.233-.051-.713 0-1.167.436-.454.435-2.414 2.92-2.712 3.203-.298.282-.402.294-.752.435-.35.141-.35-.064-.338-.23.013-.167.415-.923.87-1.512.454-.59 1.011-1.063 1.258-1.691.247-.628-.104-.884-.623-.782-.519.103-.661-.025-.661-.025s.363-.539.544-.782c.182-.243.312-.666.104-.756-.207-.09-.493.115-.778.487-.286.372-.325.807-.338 1.14-.635 1.013-1.842 2.486-2.49 3.255-.65.768-1.155.96-1.415.884-.26-.077-.168-.795.052-1.294.22-.5 1.752-2.883 1.752-2.883h.908l.13-.308h-.883l1.259-2.203h-.882l-1.389 2.267h-.999l-.103.257s.44.012.934 0c-1.674 3.036-2.465 3.625-2.816 3.933-.35.307-.583.397-.791.307-.208-.09-.104-.41.065-.666.169-.256 1.155-1.653 1.323-2.524.169-.871-.13-1-.7-.986-.571.012-1.401.896-1.648 1.089.13-1.538-.87-1.269-1.57-.551-.7.717-2.037 2.562-2.374 2.947-.337.384-.766.627-.882.59-.117-.04-.091-.168.065-.654.155-.487 1.725-3.268 1.725-3.268h-.856c-1.36 2.31-2.31 3.306-2.647 3.626-.337.32-.636.449-.817.385-.182-.064.013-.359.155-.577.143-.218 1-1.512 1.272-1.922.272-.41.597-1.28.156-1.486-.442-.205-.974.128-1.506.461-.531.334-1.102 1.077-1.375 1.102.661-1.258.247-1.794-.039-1.87-.285-.077-.778.038-1.544.589-.765.55-2.763 2.588-3.282 2.998-.519.41-3.088 1.948-4.385.743-1.298-1.204.104-3.972.48-4.664 4.164-.653 6.331-3.139 6.552-4.023.22-.884-.493-1.191-.934-1.153-3.919.551-6.254 3.908-6.864 4.83-1.012-.012-3.762-.717-3.075-3.37.688-2.651 3.763-2.664 3.763-2.664s-.013-.039 0-.116c-2.634-.46-4.787 1.653-4.437 3.742.35 2.088 2.296 2.447 3.568 2.767-1.272 3.524-.26 5.266 1.842 5.394 2.102.128 3.88-1.294 4.619-1.78-.078.217-.156 1.511.765 1.511s2.297-2.037 2.556-2.409c.26-.012.312-.115.571-.269.26-.154 1.336-1.089 1.544-1.23.208-.14.532-.333.714-.269.181.064.13.23-.403.884-.532.654-1.038 1.358-1.258 1.845-.22.487-.299 1.179.39 1.358.687.18 1.893-1.243 1.893-1.243s-.13 1.128.416 1.205c.544.076 1.012-.218 1.998-1.5.985-1.28 1.738-2.177 2.062-2.498.325-.32.753-.166.416.449-.338.615-1.947 3.472-1.947 3.472h.987c1.297-2.204 2.296-3.588 2.97-3.92.675-.334.429.076.195.499-.843 1.307-1.025 1.768-1.142 2.127-.116.359-.26 1.268.545 1.37.805.103 1.414-.768 2.011-1.345.312 1.794 1.324 1.269 1.933.833.61-.435 2.466-3.023 3.14-3.908.947-.025.714.32.506.654-.207.333-1.064 1.307-1.297 1.614-.234.308-.921 1.41-.13 1.999.791.59 1.92-.91 2.673-1.807.752-.896 1.336-1.909 1.894-2.088.558-.18.493.09.363.397-.13.308-1.09 1.538-1.492 2.127-.402.59-.428 1.37.091 1.576.519.205 1.466-.308 1.466-.308s-.026.09-.493.795c-4.307 2.37-4.32 3.933-4.32 3.933s-.234 1.333 1.271.782c2.426-1.14 3.685-3.972 4.178-4.882 1.388-1.025 3.179-2.473 3.179-2.473s0-.037-.118-.127zm-28.31-7.495c.338-.116 1.065-.308 1.298.038.234.346-.026.897-.194 1.166-.17.27-2.517 2.806-5.748 3.062 0 0 1.648-2.96 4.645-4.266zm3.439 6.97c-.246-.116-.48-.282-.623-.141-.142.14-.052.487.26.64-.35.666-1.259 2.076-2.037 2.05 0 0-.428-.064-.22-.512.207-.449 1.219-2.32 2.464-3.562.156-.128.532-.346.636.192.104.538-.363 1.166-.48 1.333zm17.048 7.854c-1.012-.077.065-1.55.065-1.55s1.31-1.551 3.321-2.486c0 0-2.09 4.134-3.386 4.036zm19.694-12.838c-1.7.83-2.66 2.447-3.736 4.074-.376.243-1.077.615-1.414.807-.338.192-.402.077-.467.039.687-1.243.726-1.807.298-2.012-.428-.205-1.077.154-1.816.59-.74.435-2.906 2.946-3.192 3.215a33.36 33.36 0 0 1-1.038.897l.104.154c.714-.513 1.83-1.5 1.83-1.5s-.156 1.385.674 1.59c1.142.269 2.478-1.82 2.945-2.525.233.103.804-.192 1.687-.679-.493.884-1.363 2.73-2.037 4.152-.675 1.422-.973 2.229-1 3.203-.025.973 1.194 1.601 2.453-.372 1.258-1.973 1.466-4.228 1.544-4.702 1.492-.423 1.88-1.435 1.88-1.435s-.077 0-.207.013c-.545.679-1.349.974-1.608 1.012-.013-.295.01-.478-.312-.846l-.158-.18s.16-.447.392-.883c.402-.756.402-.461 1.972-1.627 1.57-1.166 1.907-2.601 1.907-2.601s.325-.884-.7-.384zm-5.903 4.74c-.259-.154-.454-.269-.635-.064-.182.205.116.474.363.602-.337.551-1.518 2.537-2.387 2.166 0 0-.286-.065-.13-.487.156-.423 1.142-2.883 2.686-3.729.22-.115 1.22-.448.103 1.512zm.61 7.162c-1.025 1.153-1.129.513-1.116.308.013-.205.065-.795.623-2.114a65.165 65.165 0 0 1 1.466-3.203l.766.102s-.26 2.896-1.739 4.907zm1.83-5.317c-.312.013-.571-.051-.65-.09l.312-.602s.39.244.337.692zm3.8-6.073c-.168.423-1.128 2.217-2.827 2.896 0 0 .92-2.025 2.465-3.024.194-.128.532-.295.363.128zm7.863 1.102c.013-.308.934-1.204 1.168-1.473.233-.27.661-1.077.104-1.205-.986-.102-1.531 2.255-1.531 2.255l-2.063 2.153s-.818-1.192-2.543-.987c-2.38.283-3.283 1.82-3.477 3.395-.195 1.576 1.22 2.73 1.22 2.73l-1.52 1.742.338.025 1.427-1.614s1.686 1.102 3.97.039c2.569-1.205 2.815-3.64 2.893-4.6.078-.961 0-2.153.013-2.46zm1.09-2.294c.454.116-.636 1.269-.921 1.487 0 0 .467-1.602.921-1.487zm-7.992 8.918s-1.946-1.332-.662-3.805c1.285-2.473 4.736-1.91 5.021-.846-1.284 1.268-4.152 4.446-4.36 4.65zm5.45-2.357c-.715 1.396-2.129 3.907-5.204 2.523 0 0 3.05-3.523 4.269-4.586.078.243.246.628-.195 1.55-.052.167.065.397.247.128.181-.269.506-.858.194-1.896 1.233-1.333 1.467-1.563 1.739-1.858-.13 1.204-.306 2.68-1.05 4.139zm24.157 1.55c-.363.14-.415-.026-.39-.167.026-.14 1.103-1.704 1.285-1.986.182-.282.74-1.294.506-1.845-.39-.871-2.089.654-2.543 1.05.428-1.934-.882-1.242-1.479-.563-.597.68-2.53 2.716-2.53 2.716s-.947 1.05-1.362.884c-.714-.269.026-1.563.233-1.96 1.61-.397 2.647-1.268 2.582-1.96-.065-.692-.999-.397-1.35-.218-2.075 1.192-2.386 2.537-2.568 3.267-.182.27-.7.807-1.142.795-.441-.013-.324-.616-.169-.923.156-.308 3.763-6.932 3.763-6.932h-.87s-1.647 2.934-2.192 3.831c-.013-.115-.182-.358-.467-.358-1.232.064-2.024 1.012-2.776 1.922-.753.91-1.103 1.28-1.35 1.537-.246.256-1.31 1.32-1.816.935-.506-.384.376-1.857.376-1.857s.87-.167 1.79-.782c1.077-.73.935-1.717.234-1.666-1.609.282-2.231 1.358-2.802 2.102a2.857 2.857 0 0 1-.908-.5c.077-.154 1.05-2.114.337-1.973-.714.14-.83 1.435-.856 2.152-.865 1.893-1.687 2.41-2.076 2.614-.39.205-.558-.051-.532-.23.22-1.038 1.959-3.972 1.959-3.972h-.908c-1.622 3.241-2.945 4.15-3.127 4.24-.121.06-.597.141-.363-.397.233-.538 1.336-2.216 1.557-2.78.038-.09.506-1.371-.65-1.115-1.154.257-1.932 1.743-1.932 1.743l.194.025c.753-.999.986-1.101 1.389-1.345.402-.243.506-.09.506.167 0 .256-.83 1.32-1.285 2.011-.454.692-.558 1.884.182 1.96.74.077 1.284-.666 1.842-1.127.052.628.454 1.499 1.414.974.96-.526 1.882-2.217 2.193-2.716.233.14.35.269.895.538-.674 1.166-.402 2.216.532 2.293.934.077 1.985-1.025 2.465-1.448-.013.103.026 1.486.804 1.486.779 0 1.194-.73 1.7-1.242.156 1.998 1.765.96 2.14.5.948 1.96 2.998-.68 3.44-1.128.44-.449 1.543-1.704 1.79-1.935.246-.23.467-.461.726-.384.26.077-.09.653-.519 1.307C86.414 49.9 85.091 52 85.091 52h1.012c.233-.359 1.544-2.28 2.27-3.177 1.142-1.14 1.375-1 1.48-.936.103.064.051.372-.416.923-.467.55-1.18 1.563-1.35 1.883-.168.32-.337 1.435.429 1.448.765.013 1.557-1.281 1.557-1.281s-.078-.038-.182-.064c-.065.115-.558.769-.921.91zm-4.424-3.767c.22-.103.532-.23.389.154-.143.384-.766 1.166-2.063 1.383 0 0 .48-.922 1.674-1.537zm-8.758.512c.662-.474 1.025-.666 1.194-.55.168.115-.467 1.306-2.102 1.588 0 0 .246-.564.908-1.038zm3.815 1.358c-.558.808-1.518 2.089-2.024 1.96 0 0-.325-.14-.156-.627s1.116-2.306 2.348-3.267c.234-.154.649-.372.584.205-.065.576-.195.922-.752 1.73z" fill="#000"/></g></svg>