<svg width="100" height="100" viewBox="0 0 100 100" xmlns="http://www.w3.org/2000/svg"><title>testimonials-microsoft-colored</title><g fill="none"><path d="M94.978 49.127v-1.662h-1.965v-2.584l-.066.022-1.846.593-.036.012v1.957H88.15v-1.09c0-.508.109-.897.322-1.156.211-.256.514-.386.9-.386.277 0 .565.069.854.204l.072.034v-1.75l-.034-.014c-.27-.101-.636-.153-1.091-.153-.573 0-1.094.131-1.548.39-.455.26-.812.632-1.063 1.104-.25.471-.376 1.016-.376 1.618v1.2H84.82v1.661h1.368v7.002h1.964v-7.002h2.914v4.45c0 1.832.823 2.761 2.446 2.761.266 0 .547-.033.834-.097.291-.066.49-.132.607-.202l.026-.016v-1.678l-.08.056c-.107.074-.24.135-.395.18-.156.047-.287.07-.388.07-.38 0-.662-.108-.836-.32-.177-.214-.266-.589-.266-1.113v-4.09h1.965zm-14.546 5.524c-.713 0-1.275-.248-1.67-.737-.4-.492-.601-1.193-.601-2.083 0-.919.202-1.638.6-2.138.397-.497.953-.75 1.655-.75.681 0 1.224.242 1.612.717.39.478.588 1.191.588 2.12 0 .942-.186 1.664-.553 2.148-.365.48-.913.723-1.63.723zm.088-7.394c-1.36 0-2.44.418-3.211 1.244-.77.826-1.16 1.968-1.16 3.396 0 1.357.38 2.448 1.132 3.243.752.795 1.775 1.198 3.04 1.198 1.318 0 2.377-.424 3.147-1.261s1.16-1.969 1.16-3.363c0-1.378-.366-2.477-1.088-3.267-.723-.79-1.739-1.19-3.02-1.19zm-7.538 0c-.925 0-1.69.248-2.275.738-.589.493-.887 1.14-.887 1.922 0 .407.064.768.191 1.075.128.307.325.578.587.805.26.225.662.462 1.194.702.447.193.781.357.993.486.207.126.354.253.437.377.081.12.122.286.122.49 0 .583-.415.866-1.269.866-.317 0-.678-.07-1.074-.207a3.967 3.967 0 0 1-1.1-.585l-.08-.062v1.987l.029.014c.278.135.628.249 1.041.338.413.09.787.135 1.112.135 1.005 0 1.813-.25 2.403-.743.594-.496.895-1.158.895-1.968 0-.584-.162-1.084-.482-1.488-.317-.4-.867-.769-1.635-1.094-.611-.258-1.003-.472-1.165-.636-.156-.159-.235-.383-.235-.667a.76.76 0 0 1 .298-.618c.203-.164.484-.247.836-.247.328 0 .663.054.995.16.333.107.626.25.87.424l.08.057v-1.884l-.031-.014a4.13 4.13 0 0 0-.882-.258 5.16 5.16 0 0 0-.968-.105zm-8.283 7.394c-.712 0-1.275-.248-1.67-.737-.4-.492-.601-1.192-.601-2.083 0-.919.202-1.638.6-2.138.397-.497.953-.75 1.655-.75.681 0 1.224.242 1.612.717.39.478.588 1.191.588 2.12 0 .942-.186 1.664-.553 2.148-.365.48-.913.723-1.63.723zm.088-7.394c-1.36 0-2.441.418-3.21 1.244-.77.826-1.161 1.968-1.161 3.396 0 1.357.381 2.448 1.132 3.243.752.795 1.775 1.198 3.04 1.198 1.318 0 2.377-.424 3.147-1.261s1.16-1.969 1.16-3.363c0-1.378-.366-2.477-1.088-3.267-.723-.79-1.739-1.19-3.02-1.19zm-7.353 1.709v-1.5h-1.94v8.663h1.94v-4.432c0-.753.163-1.372.484-1.84.317-.462.739-.696 1.255-.696.174 0 .37.03.583.09.21.06.363.124.452.192l.082.062V47.45l-.031-.014c-.181-.08-.437-.121-.76-.121-.488 0-.924.164-1.298.488-.328.285-.565.676-.746 1.163h-.021zm-5.415-1.71c-.89 0-1.684.201-2.36.596a3.93 3.93 0 0 0-1.556 1.681c-.354.717-.534 1.555-.534 2.49 0 .818.174 1.57.52 2.232a3.75 3.75 0 0 0 1.451 1.542c.618.359 1.331.541 2.121.541.922 0 1.71-.193 2.341-.575l.025-.016V53.88l-.081.063a3.591 3.591 0 0 1-.95.519c-.342.126-.655.19-.929.19-.761 0-1.373-.251-1.816-.744-.445-.494-.67-1.188-.67-2.06 0-.88.235-1.59.698-2.115.462-.524 1.074-.79 1.82-.79.638 0 1.26.228 1.847.676l.081.062v-1.968l-.026-.015c-.221-.13-.523-.238-.898-.32a5.115 5.115 0 0 0-1.084-.121zm-5.787.21h-1.94v8.663h1.94v-8.664zm-.95-3.691c-.32 0-.598.114-.827.34a1.15 1.15 0 0 0-.346.85c0 .332.115.612.343.833.226.22.505.332.83.332.325 0 .605-.112.834-.332.23-.221.347-.501.347-.833a1.17 1.17 0 0 0-.337-.84 1.128 1.128 0 0 0-.844-.35zm-4.841 3.051v9.303h1.98v-12.09h-2.74l-3.484 8.98-3.38-8.98h-2.853v12.09h1.86v-9.304h.065l3.57 9.304h1.404l3.514-9.303h.064z" fill="#737373"/><path fill="#F25022" d="M14.128 49.587H5V40h9.128z"/><path fill="#7FBA00" d="M24.206 49.587h-9.128V40h9.128z"/><path fill="#00A4EF" d="M14.128 60.176H5V50.59h9.128z"/><path fill="#FFB900" d="M24.206 60.176h-9.128V50.59h9.128z"/></g></svg>