<svg width="100" height="100" viewBox="0 0 100 100" xmlns="http://www.w3.org/2000/svg"><title>testimonials-unicef-colored</title><path d="M82.203 57.867c1.47-.713 4.068-1.265 7.474-.352l.354.096-.34.138c-1.433.58-3.23.752-4.272.405-.393-.132-.629-.344-.92-.625-.696.071-1.376.333-2.006.699.188.074.362.15.523.23.076.035 1.74.898 2.803 2.293l.066.085-.075.08a1.191 1.191 0 0 1-.364.253l-.08.027-.052-.063c-.761-.949-1.928-2.057-3.247-2.639-.85.574-1.587 1.31-2.12 1.966l-.055.062-.077-.026a1.15 1.15 0 0 1-.356-.246l-.074-.077.065-.083c.624-.808 1.458-1.431 2.045-1.81a4.233 4.233 0 0 0-.818-.17c-.295.29-.539.508-.937.643-1.06.359-2.89.182-4.349-.417l-.346-.142.36-.1c2.734-.741 4.955-.545 6.507-.069a5.57 5.57 0 0 1 .29-.158zM71.939 54.89l.27.045c.985.16 3.771 1.737 4.2 2.376l.11.163-.195.033c-2.293.402-3.521-1.167-4.243-2.382l-.07-.117-.072-.118zm3.525-.812l.223.116c.742.514 2.87 2.335 3.028 2.962l.036.145-.148.013c-2.323.2-2.881-1.61-3.1-2.987l-.02-.125-.019-.124zm17.616.33l-.067.114-.069.113c-.711 1.179-1.916 2.7-4.17 2.31l-.188-.032.107-.158c.42-.62 3.158-2.148 4.124-2.304l.263-.043zm-3.46-.788l-.018.12-.02.122c-.215 1.334-.764 3.09-3.044 2.896l-.146-.013.035-.14c.155-.608 2.246-2.374 2.976-2.873l.217-.112zm-6.993-14.343c4.739 0 8.596 3.866 8.596 8.62 0 4.752-3.857 8.62-8.596 8.62-4.74 0-8.592-3.868-8.592-8.62 0-4.754 3.852-8.62 8.592-8.62zm-8.685 11.999l.146.197c.54.711 1.227 3.045 1.254 3.97l-.013.176-.036.219-.163-.103c-.962-.618-1.464-1.509-1.496-2.648a4.853 4.853 0 0 1 .234-1.576l.035-.116.039-.119zm17.174-.373l.036.115.035.113a4.7 4.7 0 0 1 .232 1.528c-.033 1.105-.527 1.969-1.472 2.568l-.158.1-.035-.213-.014-.17c.027-.897.703-3.16 1.23-3.85l.146-.19zm-20.785.106l.251.16c1.118.71 2.855 2.863 3.192 3.786l.088.245-.245-.08c-1.803-.582-2.972-2.582-3.225-3.818l-.032-.146-.03-.147zm9.216-10.786a8.22 8.22 0 0 0-5.161 7.484c.458-.4 1.066-.808 1.332-.934.338-.16.63-.529.529-.936-.103-.407-.589-1.953.384-3.011.974-1.06 2.484-1.16 3.978.08 1.562 1.301.676 2.553.446 2.85-.143.183-.289.458-.183.712.192.464-.127.322-.243.5-.042.06.05.213-.032.284-.08.07-.116.04-.146.102-.03.06.05.172-.036.229-.066.043-.159-.045-.284.112-.129.16-.206.359-.68.371-.397.01-1.124-.42-1.389-.02a.386.386 0 0 0-.04.374c.15.399.445 2.698.416 2.85.323.567 1.363.315 1.715.49.04.02.15.03.262-.072.111-.102.46-.383.72-.356.102.01.282-.016.163.224-.04.08.07.091.151.05.082-.04.73-.305.458.641-.274.946-.95.892-1.44.713a.472.472 0 0 0-.376 0c-.183.06-1.472.265-1.735.255-.264-.011-.73.01-1.044-.306-.193.275-.384.684-.275 1.065.267.245.549.473.844.682.551.14 1.251.071 1.784-.119.141-.05 1.817-.806 2.759-.845.77-.03.791-.702.64-1.068-.128-.305-.154-.763-.163-1.047-.012-.286-.083-.683-.64-1.1-.557-.417-.892-.672-.892-1.039 0-.202.126-.469.232-.528.113-.063.142-.203.133-.284-.012-.083-.104-.387.235-.387.06 0 .171-.063.171-.183 0-.122-.11-.527.162-.448.071.02.192-.071.192-.205 0-.131-.502-.763.296-.733.54.02 1.164-.218 1.42-.541 1.245-1.578 3.18-1.885 5.001-.128 1.685 1.626 1.342 4.125.243 5.25-.974.996-1.764 1.22-2.515 1.22-.142 0-.367-.142-.426.184-.061.32-.038 1.193 1.105 1.822a8.27 8.27 0 0 0 3.255-6.58 8.242 8.242 0 0 0-1.34-4.52c-.462.312-.944.59-1.434.832l.19.452.053.13-.462-.206-.007-.016-.042-.098-.048-.11-.214.093s-.283-.09-.654-.128c0 0 .167-.06.355-.133l.19-.075c.063-.026.122-.052.172-.075a8.71 8.71 0 0 0-1.016-1.585 8.248 8.248 0 0 1-1.545.658c.173.427.496 1.454.496 1.454l-.336.106s-.325-1.034-.498-1.462a8.263 8.263 0 0 1-1.928.272v1.64c.078-.006.23-.014.23-.014a20 20 0 0 0 1.49-.13l.252-.024-.464.413-.02.001c-.527.045-.964.082-1.488.107v.592h-.357v-2.585a20.09 20.09 0 0 1-.805-.033l-.034-.002-.016-.032a1.78 1.78 0 0 0-.137-.237l-.074-.11.133.012c.21.022.73.043.933.048v-1.416a3.968 3.968 0 0 1-1.07-.202c-.154.26-.564 1.035-.564 1.035s-.05-.046-.126-.098c-.076-.052-.166-.103-.166-.103s.377-.71.526-.964a3.896 3.896 0 0 1-.784-.46c-.31.224-.969.788-.969.788s-.14-.044-.206-.06c-.094-.023-.197-.038-.197-.038s.75-.673 1.09-.924a4.21 4.21 0 0 1-.435-.467zm15.116 10.421l-.03.143-.03.142c-.247 1.198-1.397 3.137-3.168 3.7l-.244.08.09-.239c.33-.895 2.038-2.983 3.135-3.67l.247-.156zm-21.334-2.088l.073.26c.069.233.112.575.12.989.03 1.173-.164 2.655-.406 3.111l-.098.185-.118-.174a3.083 3.083 0 0 1-.552-1.664c-.018-.789.268-1.647.829-2.483l.074-.112.078-.112zm18.39-.29l.074.109.074.108c.55.81.834 1.643.814 2.408a2.95 2.95 0 0 1-.542 1.613l-.116.169-.095-.18c-.238-.442-.427-1.879-.4-3.016.009-.401.05-.734.117-.96l.073-.251zM70.072 47.15l.202.246c.713.872 1.661 3.307 1.691 4.122l.009.246-.204-.134c-1.737-1.14-1.782-3.29-1.718-4.163l.01-.159.01-.158zm24.849-.078l.01.159.009.16c.056.878.015 3.038-1.568 4.185l-.188.135.01-.247c.026-.82.893-3.268 1.541-4.145l.186-.247zm-21.625-1.049l.01.28c.037.92-.666 2.9-1.198 3.651l-.144.201-.078-.234a2.737 2.737 0 0 1-.154-.719c-.097-1.47 1.016-2.657 1.36-2.987l.101-.096.103-.096zm18.453-.213l.1.093.098.093c.337.32 1.431 1.472 1.337 2.896a2.648 2.648 0 0 1-.15.697l-.077.227-.14-.194c-.524-.728-1.215-2.648-1.181-3.542l.013-.27zm2.567-2.159l.056.156.06.156c.078.217.224.672.3 1.278.11.855.084 2.063-.655 2.969l-.082.107-.086.109-.109-.55c-.124-.97.038-3.006.395-3.916l.12-.309zm-23.343 0l.121.308c.358.911.518 2.946.394 3.916l-.11.55-.083-.108-.013-.017-.058-.074-.012-.016c-.743-.906-.766-2.115-.657-2.97a6.01 6.01 0 0 1 .303-1.277l.056-.156.06-.156zm3.152-.308l-.097.318c-.268.873-1.176 2.416-1.902 3.018l-.198.163-.01-.28c-.049-1.23.58-2.224 1.922-3.047l.144-.086zM91 43.169l.14.087.137.087c1.302.822 1.9 1.8 1.829 2.99l-.016.271-.19-.16c-.701-.6-1.564-2.11-1.81-2.963l-.09-.312zm-17.61-1.721l-.06.356c-.219 1.266-.745 2.362-1.452 3.01l-.161.147-.056-.257-.017-.09c-.178-1.297.974-2.478 1.477-2.927l.135-.118.134-.12zm18.511 0l.134.12.134.12c.502.448 1.655 1.63 1.478 2.926l-.017.09-.06.257-.16-.148c-.704-.647-1.233-1.743-1.45-3.009l-.059-.356zm-3.978.113a8.018 8.018 0 0 1-1.002.72 8.71 8.71 0 0 1 1.026 1.61c.48-.238.946-.508 1.388-.803a8.337 8.337 0 0 0-1.412-1.527zm-4.035-.046a3.936 3.936 0 0 1-1.083.202v1.418a7.879 7.879 0 0 0 1.786-.248 12.576 12.576 0 0 0-.703-1.372zm1.114-.589a4.043 4.043 0 0 1-.783.46c.266.452.507.925.716 1.405a7.936 7.936 0 0 0 1.448-.606 8.613 8.613 0 0 0-1.381-1.259zm.714-.698a3.95 3.95 0 0 1-.435.465c.518.387.992.828 1.413 1.314.334-.201.653-.427.948-.67a8.132 8.132 0 0 0-1.926-1.109zm-2.91-.244v1.377c.3-.014.597-.068.887-.156a12.66 12.66 0 0 0-.888-1.22zm-.358.016c-.319.388-.612.79-.878 1.205.287.088.58.141.878.156zm.756-.075c.302.375.58.762.83 1.158a3.52 3.52 0 0 0 .66-.37 8.662 8.662 0 0 0-1.49-.788zm-1.147.003a8.448 8.448 0 0 0-1.484.784c.207.147.427.272.66.371.253-.4.529-.786.824-1.155zm1.488-.242a8.98 8.98 0 0 1 1.443.8 3.98 3.98 0 0 0 .378-.39 8.116 8.116 0 0 0-1.82-.41zm-1.817-.004a8.141 8.141 0 0 0-1.83.412c.115.135.24.267.38.39a9.21 9.21 0 0 1 1.45-.802zM8.02 45.598v7.419c0 2.173.504 3.771 2.799 3.771.982 0 2.32-.5 2.825-1.798.427-1.109.476-2.486.48-2.886v-6.506h2.395v12.54h-2.346v-1.85h-.05c-.96 1.574-2.574 2.223-4.339 2.223-2.65 0-4.163-1.998-4.163-4.52v-8.393h2.398zm34.224-.347c2.656 0 4.66 1.664 4.782 4.369h-2.377c-.128-1.565-.877-2.653-2.584-2.653-2.277 0-3.157 1.956-3.157 4.888 0 2.927.88 4.887 3.157 4.887 1.58 0 2.556-1.014 2.68-2.803h2.384c-.203 2.803-2.304 4.515-5.088 4.515-4.034 0-5.639-2.827-5.639-6.5 0-3.653 1.854-6.703 5.842-6.703zm11.797 0c3.76.08 5.539 2.433 5.539 5.884V52.3h-8.871c-.176 2.184.726 4.442 3.155 4.442 1.854 0 2.785-.716 3.055-2.532h2.513c-.379 2.832-2.587 4.244-5.59 4.244-4.037 0-5.644-2.827-5.644-6.5 0-3.653 1.86-6.703 5.843-6.703zm-24.058 4.22v8.666h-2.396v-7.892c0-2.073-.883-3.197-2.901-3.197h-.111c-.336.007-1.377.099-2.21.923-.352.35-1.01.9-1.01 3.347v6.82H18.96v-12.54h2.345v1.849h.05c.807-1.574 2.573-2.222 3.835-2.222.881 0 4.793.225 4.793 4.245zm4.63-3.883v12.538h-2.396V45.588h2.395zm31.6-6.092c.575 0 1.128.147 1.705.245v1.961c-.403-.022-.802-.076-1.205-.076-1.351 0-2.13.351-2.057 1.713v2.281h2.91v1.644h-2.91v10.818h-2.382V47.264h-2.163V45.62h2.163v-2.675c.08-2.73 2.158-3.45 3.939-3.45zm-12.349 7.47c-1.981 0-3.155 1.658-3.155 3.698h6.365c.05-2.084-.903-3.697-3.21-3.697zm-19.025-6.874v2.572h-2.851v-2.572h2.851z" fill="#00AEEF"/></svg>