<svg width="100" height="100" viewBox="0 0 100 100" xmlns="http://www.w3.org/2000/svg"><title>testimonials-amnesty-international-colored</title><path d="M89.347 62.717s-.08 0 0 0c.16.079.48.079.56-.08l.32-.713.561.476c.16.079.4.079.56 0 .16-.159.08-.397 0-.555l-.24-.238c1.282-.317 2.162-.634 2.723-.792l-.08.317c-.08.158.08.396.24.554.16.08.4-.079.56-.237l.24-.714.561.397c.16.079.4.079.56-.08.16-.158.08-.396-.08-.554l-.72-.555.32-.872c.08-.158-.08-.396-.24-.554-.16-.08-.4.079-.56.237l-.24.714-.561-.317a.497.497 0 0 0-.56.079.484.484 0 0 0 .08.554l.4.317c-.56.159-1.442.555-2.883.872l.24-.555c.08-.158 0-.396-.16-.554-.16-.08-.4 0-.56.158l-.32.634-.481-.396c-.08-.08-.08-.08-.16-.08.08-1.822.08-3.724.08-5.546.24-.08.48-.08.64-.08l-.24.476c-.08.158 0 .396.16.555.16.158.4 0 .56-.159l.321-.713.56.475c.16.08.401.08.561-.079a.484.484 0 0 0-.08-.555l-.32-.317c.72-.158 1.2-.317 1.601-.554.961-.397 1.442-.951 1.442-1.585v-.317l.64.238c.24.079.4-.08.56-.238.08-.238-.08-.396-.24-.555l-.72-.238.32-.554a.484.484 0 0 0-.08-.555c-.16-.159-.4-.08-.56.08l-.4.554c-.321-.476-.882-.793-1.362-1.11h-.08c-.32-.237-.72-.554-1.281-.713l.48-.317c.16-.079.24-.317.08-.554-.08-.159-.32-.238-.56-.08l-.56.397-.241-.555c-.08-.238-.32-.317-.56-.238-.24.08-.32.317-.24.555l.08.238c-.08-.08-.24-.08-.321-.08.24-.95.56-2.06.32-2.694-.08-.475-1.04-.555-1.04-.555h-3.364c-.4-.554-.24-.713.08-1.426.32-.792.801-1.11 1.922-2.377.16-.159 1.682-2.06 1.682-2.06.32-.555.56-1.19.56-1.744 0-2.694-2.562-4.2-2.562-4.2s-.08.634-.32 1.426c-.32.714-1.842 1.427-3.043 1.902-1.121.476-3.123.713-3.684 4.12.56 3.805 3.444 3.488 3.684 3.725.16.159.08.476 0 .634h-3.443v3.012a21.604 21.604 0 0 0-4.164 1.268l.08-.317c.08-.238-.08-.397-.32-.476-.24-.08-.4.08-.48.317l-.241.713-.56-.317a.497.497 0 0 0-.561.08.484.484 0 0 0 .08.554l.32.159c-.56.237-.88.396-.96.475-.16.08-.32.317-.16.555.16.238.32.317.56.158l.8-.396-.08.476c-.08.237.08.396.32.475.241.08.401-.08.481-.317l.24-.713.56.317c.161.08.401.08.561-.08.16-.158.08-.396-.08-.554l-.4-.238a27.205 27.205 0 0 1 4.004-1.188v6.34l-1.201.078.16-.317a.415.415 0 0 0-.16-.554.425.425 0 0 0-.561.158l-.32.634-.48-.396a.39.39 0 0 0-.561 0 .38.38 0 0 0 0 .555l.24.237c-1.682.476-2.722 1.189-2.883 2.22-.08.475.08.95.641 1.584l-.64.159c-.24.079-.32.316-.32.475.08.238.32.317.48.317l.72-.159v.714c0 .237.16.396.4.396.24 0 .4-.159.4-.396v-.555c.401.238.962.555 1.522.713.32.08.801.317 1.281.396l-.48.397c-.16.079-.16.396-.08.554.08.159.4.159.56.08l.561-.555.32.634c.08.158.32.317.56.158l.08-.079v2.853l8.489 1.585c.08.158.16-4.121.16-4.28zm.4-13.947c.08.079.32.079.4.079l-.48.317c0 .079 0-.159.08-.396zm-.08 1.109c.08.08.32.08.48.08l.641-.476.24.634c.08.158.32.317.56.237.241-.079.321-.317.241-.554l-.08-.159c.32.159.56.317.88.555h.08c.16.08.321.158.401.317-.08.08-.16.08-.16.238-.08.237.08.396.24.554l.72.238-.4.555a.484.484 0 0 0 .08.555h.08c-.16.079-.32.158-.56.317-.32.158-.88.316-1.441.475l.16-.396c.08-.159 0-.396-.16-.555-.16-.08-.4 0-.56.159l-.321.633-.48-.396c-.16-.158-.4-.079-.56.08a.484.484 0 0 0 .08.554l.24.238c-.16 0-.32.08-.481.08 0-1.506 0-2.854.08-3.963zm-8.888 9.985l-.56.475-.24-.634c-.08-.158-.321-.317-.561-.158-.24.158-.32.317-.16.554l.08.159c-.4-.08-.721-.238-.961-.317-.4-.159-.72-.317-1.121-.555l.16-.079c.24-.08.32-.317.32-.475-.08-.238-.32-.317-.48-.317l-.72.158v-.555c0-.237-.161-.396-.401-.396-.24 0-.4.159-.4.396v.08c-.08-.238-.16-.476-.16-.634.08-.634.96-1.189 2.241-1.506l-.24.475a.415.415 0 0 0 .16.555c.16.08.4.08.56-.158l.321-.713.48.475c.16.158.4.158.56 0a.38.38 0 0 0 0-.555l-.32-.317h.08l1.442-.158-.08 4.2c.08 0 0 0 0 0zm2.642-19.098c0-.08.32-.793.32-.951l.561-.792c.48-.476.961-.951 1.441-1.348.961-.95 2.483-2.535 2.483-2.535s.88 1.188-.64 3.486c-.08.08-.481.714-.561.872l-.721.95c-.32.476-.56.635-.72 1.19l-.721 2.14s-1.442-.952-1.442-3.012zm4.324 24.328c-.24-.08-5.365-1.347-5.525-1.347v-8.242c.4-.079.72-.079 1.201-.079l-.24.317a.484.484 0 0 0 .08.555c.16.079.4.079.56-.08l.481-.633.4.554c.08.159.4.159.561.08.16-.08.16-.397.08-.555l-.32-.396c.96-.08 1.841-.238 2.722-.317v10.143zm0-11.015c-.8.08-1.681.238-2.642.317l.24-.317a.484.484 0 0 0-.08-.555.497.497 0 0 0-.56.08l-.4.554-.401-.475c-.08-.159-.4-.159-.56-.08-.16.08-.16.397-.08.555l.24.317c-.4.08-.801.08-1.202.08v-8.163h5.525c-.08.08-.08 5.468-.08 7.687zM10.205 40.32l2.242 12.283h-2.082l-.32-2.694H7.722l-.4 2.694H5.32l2.242-12.282h2.643zm-1.362 1.982l-.792 5.645-.008.06h1.681l-.88-5.705zm4.645 10.301V40.321h2.722l1.442 6.498c.08.237.08.634.16 1.11.08.475.08 1.03.08 1.663 0-.634.08-1.188.08-1.664.08-.475.08-.872.16-1.189l1.441-6.498h2.723v12.283h-1.922V44.6c0-.08 0-.317.08-.793 0-.475.08-1.03.08-1.822-.08.317-.08.634-.16.95-.08.397-.16.952-.32 1.586l-1.602 8.003h-1.04l-1.602-8.003c-.08-.634-.24-1.19-.32-1.585-.08-.397-.08-.714-.16-.951.08.792.08 1.426.08 1.822 0 .476.08.714.08.793v8.003h-2.002zm10.329 0V40.321h1.922l2.402 6.577c.08.317.16.555.32.95.08.397.16.793.32 1.269h.08c-.08-.555-.16-.951-.16-1.427-.08-.396-.08-.792-.08-1.11v-6.339h1.842v12.283h-1.761l-2.563-7.132c-.08-.317-.24-.713-.32-1.11-.08-.316-.16-.712-.24-1.109h-.08c.08.476.16.951.24 1.348.08.475.08.95.08 1.426v6.498l-2.002.158zm8.007 0V40.321h5.686v1.901h-3.684v3.012h2.803v1.98h-2.803v3.408h3.844v1.981h-5.846zm6.806-3.169l1.922-.317c.08.634.32 1.11.56 1.426.241.317.561.476.882.476.32 0 .64-.08.88-.317.24-.238.32-.555.32-.872 0-.634-.72-1.585-2.241-2.932-.24-.238-.4-.317-.56-.476-.481-.475-.882-.95-1.202-1.505-.32-.555-.4-1.11-.4-1.744 0-.871.32-1.584.88-2.218.561-.555 1.362-.872 2.243-.872.88 0 1.521.238 2.081.713.561.555.801 1.189.961 2.14l-1.841.317c-.08-.476-.16-.872-.4-1.11-.24-.237-.481-.396-.721-.396-.32 0-.56.08-.801.317-.16.238-.32.555-.32.872 0 .317.08.634.32.95.24.318.56.714 1.201 1.348.08.079.24.237.4.317 1.602 1.426 2.483 2.773 2.483 3.962 0 .95-.32 1.664-.881 2.219-.56.554-1.361.871-2.322.871-.961 0-1.682-.317-2.242-.95-.721-.317-1.041-1.19-1.201-2.22zM48 52.603v-10.46h-2.083v-1.822h6.166v1.822H50v10.46zm8.006 0v-5.15l-2.482-7.212h2.082l1.201 3.883c.08.159.08.397.16.714.08.317.08.633.08.95.08-.396.08-.713.08-1.109.08-.317.08-.555.08-.634l1.202-3.804h2.081l-2.482 7.212v5.15h-2.002zM5 63.46v-7.37h1.201v7.37zm2.562 0v-7.37h1.201l1.442 3.962c.08.159.08.317.16.555.08.238.08.476.16.713-.08-.317-.08-.554-.08-.871 0-.238-.08-.476-.08-.634V56.01h1.12v7.37h-1.04l-1.602-4.2a5.425 5.425 0 0 0-.24-.634c-.08-.238-.08-.476-.08-.634.08.317.08.555.08.792 0 .238.08.555.08.872v3.962h-1.12v-.08zm5.926 0V57.2h-1.281v-1.11h3.763v1.11h-1.201v6.26h-1.281c0 .08 0 0 0 0zm3.282 0v-7.37h3.444v1.189h-2.162V59.1h1.681v1.19h-1.681v2.06h2.322v1.109zm6.006-7.37c.48 0 .8.08 1.121.08.24.079.48.158.64.316.241.159.401.397.561.714.08.317.16.634.16 1.03 0 .475-.08.871-.24 1.188-.16.317-.4.555-.72.793l1.12 3.249h-1.28l-.961-3.09h-.721v3.09h-1.281v-7.37h1.601zm0 .872h-.4l.08 2.456h.32c.48 0 .8-.079.961-.317.16-.158.32-.554.32-.95 0-.397-.08-.714-.32-.872-.16-.159-.56-.317-.96-.317zm3.684 6.498v-7.37h1.2l1.442 3.962c.08.159.08.317.16.555.08.238.08.476.16.713h.08c-.08-.317-.08-.554-.08-.871 0-.238-.08-.476-.08-.634V56.01h1.121v7.37h-1.04l-1.602-4.2a5.425 5.425 0 0 0-.24-.634c-.08-.238-.08-.476-.08-.634h-.08c.08.317.08.555.08.792 0 .238.08.555.08.872v3.962H26.46v-.08zm7.606-7.37l1.362 7.37h-1.201l-.24-1.585h-1.442l-.24 1.585c0 .08-1.201 0-1.201 0l1.361-7.37h1.601zm-.96 1.189l-.4 3.487h.96l-.56-3.487zm3.443 6.181V57.2h-1.201v-1.11h3.763v1.11H37.83v6.26h-1.281c0 .08 0 0 0 0zm3.283 0v-7.37h1.2v7.37h-1.2zm4.484-7.528c.72 0 1.28.317 1.601.95.32.635.56 1.586.56 2.853 0 1.268-.16 2.22-.56 2.853-.32.634-.96.951-1.601.951-.72 0-1.281-.317-1.602-.95-.4-.555-.56-1.586-.56-2.854 0-1.267.16-2.218.56-2.852.32-.634.961-.951 1.602-.951zm0 1.03c-.32 0-.56.238-.72.713-.081.476-.241 1.189-.241 2.06 0 .951.08 1.585.24 2.06.16.476.4.714.72.714.321 0 .561-.238.721-.713.16-.476.24-1.189.24-2.06 0-.872-.08-1.585-.24-2.06-.16-.476-.4-.714-.72-.714zm3.283 6.498v-7.37h1.2l1.442 3.962c.08.159.08.317.16.555.08.238.08.476.16.713h.08c-.08-.317-.08-.554-.08-.871 0-.238-.08-.476-.08-.634V56.01h1.121v7.37h-1.04l-1.602-4.2a5.425 5.425 0 0 0-.24-.634c-.08-.238-.08-.476-.08-.634h-.08c.08.317.08.555.08.792 0 .238.08.555.08.872v3.962h-1.041c-.08.08-.08-.08-.08-.08zm7.527-7.37l1.36 7.37h-1.2l-.24-1.585h-1.442l-.24 1.585h-1.201l1.361-7.37h1.602zm-.881 1.189l-.4 3.487h.96l-.56-3.487zm2.882 6.181v-7.37h1.282v6.26h2.322v1.11h-3.604z"/></svg>